<?xml version="1.0" encoding="utf-8" ?>
<svg baseProfile="full" height="800" version="1.1" width="800" xmlns="http://www.w3.org/2000/svg" xmlns:ev="http://www.w3.org/2001/xml-events" xmlns:xlink="http://www.w3.org/1999/xlink"><defs /><line stroke="white" stroke-width="1" x1="-49.99999887499996" x2="849.999998875" y1="849.999998875" y2="849.999998875" /><line stroke="white" stroke-width="1" x1="8.888888487490476e-07" x2="799.9999991111112" y1="799.9999991111112" y2="799.9999991111112" /><line stroke="white" stroke-width="1" x1="40.00000072" x2="759.99999928" y1="759.99999928" y2="759.99999928" /><line stroke="white" stroke-width="1" x1="72.72727332231403" x2="727.272726677686" y1="727.272726677686" y2="727.272726677686" /><line stroke="white" stroke-width="1" x1="100.0000005" x2="699.9999995000001" y1="699.9999995000001" y2="699.9999995000001" /><line stroke="white" stroke-width="1" x1="123.07692350295855" x2="676.9230764970414" y1="676.9230764970414" y2="676.9230764970414" /><line stroke="white" stroke-width="1" x1="142.8571432244898" x2="657.1428567755102" y1="657.1428567755102" y2="657.1428567755102" /><line stroke="white" stroke-width="1" x1="-49.99999887499996" x2="142.8571432244898" y1="849.999998875" y2="657.1428567755102" /><line stroke="white" stroke-width="1" x1="25.000000937500033" x2="185.71428602040817" y1="849.999998875" y2="657.1428567755102" /><line stroke="white" stroke-width="1" x1="100.00000075000003" x2="228.57142881632652" y1="849.999998875" y2="657.1428567755102" /><line stroke="white" stroke-width="1" x1="175.00000056250002" x2="271.4285716122449" y1="849.999998875" y2="657.1428567755102" /><line stroke="white" stroke-width="1" x1="250.000000375" x2="314.28571440816324" y1="849.999998875" y2="657.1428567755102" /><line stroke="white" stroke-width="1" x1="325.0000001875" x2="357.1428572040816" y1="849.999998875" y2="657.1428567755102" /><line stroke="white" stroke-width="1" x1="400.0" x2="400.0" y1="849.999998875" y2="657.1428567755102" /><line stroke="white" stroke-width="1" x1="474.9999998125" x2="442.8571427959184" y1="849.999998875" y2="657.1428567755102" /><line stroke="white" stroke-width="1" x1="549.999999625" x2="485.71428559183676" y1="849.999998875" y2="657.1428567755102" /><line stroke="white" stroke-width="1" x1="624.9999994375" x2="528.5714283877551" y1="849.999998875" y2="657.1428567755102" /><line stroke="white" stroke-width="1" x1="699.99999925" x2="571.4285711836735" y1="849.999998875" y2="657.1428567755102" /><line stroke="white" stroke-width="1" x1="774.9999990624999" x2="614.2857139795918" y1="849.999998875" y2="657.1428567755102" /><line stroke="white" stroke-width="1" x1="849.999998875" x2="657.1428567755102" y1="849.999998875" y2="657.1428567755102" /><line stroke="white" stroke-width="1" x1="-49.99999887499996" x2="849.999998875" y1="-49.99999887499996" y2="-49.99999887499996" /><line stroke="white" stroke-width="1" x1="8.888888487490476e-07" x2="799.9999991111112" y1="8.888888487490476e-07" y2="8.888888487490476e-07" /><line stroke="white" stroke-width="1" x1="40.00000072" x2="759.99999928" y1="40.00000072" y2="40.00000072" /><line stroke="white" stroke-width="1" x1="72.72727332231403" x2="727.272726677686" y1="72.72727332231403" y2="72.72727332231403" /><line stroke="white" stroke-width="1" x1="100.0000005" x2="699.9999995000001" y1="100.0000005" y2="100.0000005" /><line stroke="white" stroke-width="1" x1="123.07692350295855" x2="676.9230764970414" y1="123.07692350295855" y2="123.07692350295855" /><line stroke="white" stroke-width="1" x1="142.8571432244898" x2="657.1428567755102" y1="142.8571432244898" y2="142.8571432244898" /><line stroke="white" stroke-width="1" x1="-49.99999887499996" x2="142.8571432244898" y1="-49.99999887499996" y2="142.8571432244898" /><line stroke="white" stroke-width="1" x1="25.000000937500033" x2="185.71428602040817" y1="-49.99999887499996" y2="142.8571432244898" /><line stroke="white" stroke-width="1" x1="100.00000075000003" x2="228.57142881632652" y1="-49.99999887499996" y2="142.8571432244898" /><line stroke="white" stroke-width="1" x1="175.00000056250002" x2="271.4285716122449" y1="-49.99999887499996" y2="142.8571432244898" /><line stroke="white" stroke-width="1" x1="250.000000375" x2="314.28571440816324" y1="-49.99999887499996" y2="142.8571432244898" /><line stroke="white" stroke-width="1" x1="325.0000001875" x2="357.1428572040816" y1="-49.99999887499996" y2="142.8571432244898" /><line stroke="white" stroke-width="1" x1="400.0" x2="400.0" y1="-49.99999887499996" y2="142.8571432244898" /><line stroke="white" stroke-width="1" x1="474.9999998125" x2="442.8571427959184" y1="-49.99999887499996" y2="142.8571432244898" /><line stroke="white" stroke-width="1" x1="549.999999625" x2="485.71428559183676" y1="-49.99999887499996" y2="142.8571432244898" /><line stroke="white" stroke-width="1" x1="624.9999994375" x2="528.5714283877551" y1="-49.99999887499996" y2="142.8571432244898" /><line stroke="white" stroke-width="1" x1="699.99999925" x2="571.4285711836735" y1="-49.99999887499996" y2="142.8571432244898" /><line stroke="white" stroke-width="1" x1="774.9999990624999" x2="614.2857139795918" y1="-49.99999887499996" y2="142.8571432244898" /><line stroke="white" stroke-width="1" x1="849.999998875" x2="657.1428567755102" y1="-49.99999887499996" y2="142.8571432244898" /><line stroke="white" stroke-width="1" x1="-49.99999887499996" x2="-49.99999887499996" y1="849.999998875" y2="-49.99999887499996" /><line stroke="white" stroke-width="1" x1="8.888888487490476e-07" x2="8.888888487490476e-07" y1="799.9999991111112" y2="8.888888487490476e-07" /><line stroke="white" stroke-width="1" x1="40.00000072" x2="40.00000072" y1="759.99999928" y2="40.00000072" /><line stroke="white" stroke-width="1" x1="72.72727332231403" x2="72.72727332231403" y1="727.272726677686" y2="72.72727332231403" /><line stroke="white" stroke-width="1" x1="100.0000005" x2="100.0000005" y1="699.9999995000001" y2="100.0000005" /><line stroke="white" stroke-width="1" x1="123.07692350295855" x2="123.07692350295855" y1="676.9230764970414" y2="123.07692350295855" /><line stroke="white" stroke-width="1" x1="142.8571432244898" x2="142.8571432244898" y1="657.1428567755102" y2="142.8571432244898" /><line stroke="white" stroke-width="1" x1="-49.99999887499996" x2="142.8571432244898" y1="849.999998875" y2="657.1428567755102" /><line stroke="white" stroke-width="1" x1="-49.99999887499996" x2="142.8571432244898" y1="774.9999990624999" y2="614.2857139795918" /><line stroke="white" stroke-width="1" x1="-49.99999887499996" x2="142.8571432244898" y1="699.99999925" y2="571.4285711836735" /><line stroke="white" stroke-width="1" x1="-49.99999887499996" x2="142.8571432244898" y1="624.9999994375" y2="528.5714283877551" /><line stroke="white" stroke-width="1" x1="-49.99999887499996" x2="142.8571432244898" y1="549.999999625" y2="485.71428559183676" /><line stroke="white" stroke-width="1" x1="-49.99999887499996" x2="142.8571432244898" y1="474.9999998125" y2="442.8571427959184" /><line stroke="white" stroke-width="1" x1="-49.99999887499996" x2="142.8571432244898" y1="400.0" y2="400.0" /><line stroke="white" stroke-width="1" x1="-49.99999887499996" x2="142.8571432244898" y1="325.0000001875" y2="357.1428572040816" /><line stroke="white" stroke-width="1" x1="-49.99999887499996" x2="142.8571432244898" y1="250.000000375" y2="314.28571440816324" /><line stroke="white" stroke-width="1" x1="-49.99999887499996" x2="142.8571432244898" y1="175.00000056250002" y2="271.4285716122449" /><line stroke="white" stroke-width="1" x1="-49.99999887499996" x2="142.8571432244898" y1="100.00000075000003" y2="228.57142881632652" /><line stroke="white" stroke-width="1" x1="-49.99999887499996" x2="142.8571432244898" y1="25.000000937500033" y2="185.71428602040817" /><line stroke="white" stroke-width="1" x1="-49.99999887499996" x2="142.8571432244898" y1="-49.99999887499996" y2="142.8571432244898" /><line stroke="white" stroke-width="1" x1="849.999998875" x2="849.999998875" y1="849.999998875" y2="-49.99999887499996" /><line stroke="white" stroke-width="1" x1="799.9999991111112" x2="799.9999991111112" y1="799.9999991111112" y2="8.888888487490476e-07" /><line stroke="white" stroke-width="1" x1="759.99999928" x2="759.99999928" y1="759.99999928" y2="40.00000072" /><line stroke="white" stroke-width="1" x1="727.272726677686" x2="727.272726677686" y1="727.272726677686" y2="72.72727332231403" /><line stroke="white" stroke-width="1" x1="699.9999995000001" x2="699.9999995000001" y1="699.9999995000001" y2="100.0000005" /><line stroke="white" stroke-width="1" x1="676.9230764970414" x2="676.9230764970414" y1="676.9230764970414" y2="123.07692350295855" /><line stroke="white" stroke-width="1" x1="657.1428567755102" x2="657.1428567755102" y1="657.1428567755102" y2="142.8571432244898" /><line stroke="white" stroke-width="1" x1="849.999998875" x2="657.1428567755102" y1="849.999998875" y2="657.1428567755102" /><line stroke="white" stroke-width="1" x1="849.999998875" x2="657.1428567755102" y1="774.9999990624999" y2="614.2857139795918" /><line stroke="white" stroke-width="1" x1="849.999998875" x2="657.1428567755102" y1="699.99999925" y2="571.4285711836735" /><line stroke="white" stroke-width="1" x1="849.999998875" x2="657.1428567755102" y1="624.9999994375" y2="528.5714283877551" /><line stroke="white" stroke-width="1" x1="849.999998875" x2="657.1428567755102" y1="549.999999625" y2="485.71428559183676" /><line stroke="white" stroke-width="1" x1="849.999998875" x2="657.1428567755102" y1="474.9999998125" y2="442.8571427959184" /><line stroke="white" stroke-width="1" x1="849.999998875" x2="657.1428567755102" y1="400.0" y2="400.0" /><line stroke="white" stroke-width="1" x1="849.999998875" x2="657.1428567755102" y1="325.0000001875" y2="357.1428572040816" /><line stroke="white" stroke-width="1" x1="849.999998875" x2="657.1428567755102" y1="250.000000375" y2="314.28571440816324" /><line stroke="white" stroke-width="1" x1="849.999998875" x2="657.1428567755102" y1="175.00000056250002" y2="271.4285716122449" /><line stroke="white" stroke-width="1" x1="849.999998875" x2="657.1428567755102" y1="100.00000075000003" y2="228.57142881632652" /><line stroke="white" stroke-width="1" x1="849.999998875" x2="657.1428567755102" y1="25.000000937500033" y2="185.71428602040817" /><line stroke="white" stroke-width="1" x1="849.999998875" x2="657.1428567755102" y1="-49.99999887499996" y2="142.8571432244898" /><line stroke="white" stroke-width="1" x1="142.8571432244898" x2="142.8571432244898" y1="657.1428567755102" y2="142.8571432244898" /><line stroke="white" stroke-width="1" x1="185.71428602040817" x2="185.71428602040817" y1="657.1428567755102" y2="142.8571432244898" /><line stroke="white" stroke-width="1" x1="228.57142881632652" x2="228.57142881632652" y1="657.1428567755102" y2="142.8571432244898" /><line stroke="white" stroke-width="1" x1="271.4285716122449" x2="271.4285716122449" y1="657.1428567755102" y2="142.8571432244898" /><line stroke="white" stroke-width="1" x1="314.28571440816324" x2="314.28571440816324" y1="657.1428567755102" y2="142.8571432244898" /><line stroke="white" stroke-width="1" x1="357.1428572040816" x2="357.1428572040816" y1="657.1428567755102" y2="142.8571432244898" /><line stroke="white" stroke-width="1" x1="400.0" x2="400.0" y1="657.1428567755102" y2="142.8571432244898" /><line stroke="white" stroke-width="1" x1="442.8571427959184" x2="442.8571427959184" y1="657.1428567755102" y2="142.8571432244898" /><line stroke="white" stroke-width="1" x1="485.71428559183676" x2="485.71428559183676" y1="657.1428567755102" y2="142.8571432244898" /><line stroke="white" stroke-width="1" x1="528.5714283877551" x2="528.5714283877551" y1="657.1428567755102" y2="142.8571432244898" /><line stroke="white" stroke-width="1" x1="571.4285711836735" x2="571.4285711836735" y1="657.1428567755102" y2="142.8571432244898" /><line stroke="white" stroke-width="1" x1="614.2857139795918" x2="614.2857139795918" y1="657.1428567755102" y2="142.8571432244898" /><line stroke="white" stroke-width="1" x1="657.1428567755102" x2="657.1428567755102" y1="657.1428567755102" y2="142.8571432244898" /><line stroke="white" stroke-width="1" x1="142.8571432244898" x2="657.1428567755102" y1="657.1428567755102" y2="657.1428567755102" /><line stroke="white" stroke-width="1" x1="142.8571432244898" x2="657.1428567755102" y1="614.2857139795918" y2="614.2857139795918" /><line stroke="white" stroke-width="1" x1="142.8571432244898" x2="657.1428567755102" y1="571.4285711836735" y2="571.4285711836735" /><line stroke="white" stroke-width="1" x1="142.8571432244898" x2="657.1428567755102" y1="528.5714283877551" y2="528.5714283877551" /><line stroke="white" stroke-width="1" x1="142.8571432244898" x2="657.1428567755102" y1="485.71428559183676" y2="485.71428559183676" /><line stroke="white" stroke-width="1" x1="142.8571432244898" x2="657.1428567755102" y1="442.8571427959184" y2="442.8571427959184" /><line stroke="white" stroke-width="1" x1="142.8571432244898" x2="657.1428567755102" y1="400.0" y2="400.0" /><line stroke="white" stroke-width="1" x1="142.8571432244898" x2="657.1428567755102" y1="357.1428572040816" y2="357.1428572040816" /><line stroke="white" stroke-width="1" x1="142.8571432244898" x2="657.1428567755102" y1="314.28571440816324" y2="314.28571440816324" /><line stroke="white" stroke-width="1" x1="142.8571432244898" x2="657.1428567755102" y1="271.4285716122449" y2="271.4285716122449" /><line stroke="white" stroke-width="1" x1="142.8571432244898" x2="657.1428567755102" y1="228.57142881632652" y2="228.57142881632652" /><line stroke="white" stroke-width="1" x1="142.8571432244898" x2="657.1428567755102" y1="185.71428602040817" y2="185.71428602040817" /><line stroke="white" stroke-width="1" x1="142.8571432244898" x2="657.1428567755102" y1="142.8571432244898" y2="142.8571432244898" /></svg>