<svg width="125" height="46" viewBox="0 0 125 46" fill="none" xmlns="http://www.w3.org/2000/svg">
<path opacity="0.9" d="M11.3499 31.4512L0.449097 0.451202H6.94681L14.2567 23.989L14.556 25.6094L14.8552 24.0317L22.1651 0.451202H28.4491L17.6338 31.4512H11.3499Z" fill="url(#paint0_linear_595_5)"/>
<g opacity="0.9">
<path d="M24.6918 31.2567V20.7431H27.5236V31.2567H24.6918ZM26.1077 19.3602C25.6425 19.3602 25.2481 19.2009 24.9244 18.8823C24.6075 18.557 24.4491 18.1604 24.4491 17.6927C24.4491 17.2114 24.6075 16.8081 24.9244 16.4827C25.2481 16.1505 25.6425 15.9845 26.1077 15.9845C26.5729 15.9845 26.964 16.1505 27.2808 16.4827C27.6045 16.8081 27.7663 17.2114 27.7663 17.6927C27.7663 18.1604 27.6045 18.557 27.2808 18.8823C26.964 19.2009 26.5729 19.3602 26.1077 19.3602Z" fill="url(#paint1_linear_595_5)"/>
<path d="M33.7185 31.4601C33.1926 31.4601 32.5925 31.4092 31.9183 31.3076C31.2441 31.2127 30.4552 30.9788 29.5518 30.606L30.199 28.7147C30.8261 28.9588 31.3857 29.1282 31.8778 29.2231C32.37 29.318 32.8285 29.3655 33.2533 29.3655C33.7522 29.3655 34.1163 29.2604 34.3455 29.0503C34.5747 28.8334 34.6894 28.5995 34.6894 28.3487C34.6894 28.0437 34.5714 27.7895 34.3354 27.5861C34.0994 27.376 33.796 27.1895 33.4252 27.0269C33.0544 26.8574 32.6599 26.6812 32.2419 26.4981C31.8239 26.3151 31.4295 26.1016 31.0587 25.8575C30.6878 25.6067 30.3844 25.3017 30.1485 24.9424C29.9125 24.5764 29.7945 24.1256 29.7945 23.5901C29.7945 23.1563 29.9125 22.7055 30.1485 22.2378C30.3912 21.77 30.7856 21.3735 31.3317 21.0481C31.8778 20.7227 32.6127 20.56 33.5364 20.56C33.9949 20.56 34.4635 20.5939 34.9422 20.6617C35.4209 20.7295 35.9839 20.8719 36.6311 21.0888L35.9839 22.919C35.458 22.7767 35.0332 22.6851 34.7096 22.6445C34.3927 22.597 34.0623 22.5733 33.7185 22.5733C33.3342 22.5733 33.0274 22.6512 32.7982 22.8072C32.5757 22.9631 32.4644 23.1834 32.4644 23.4681C32.4644 23.7528 32.5824 24.0002 32.8184 24.2103C33.0544 24.4137 33.3578 24.6035 33.7286 24.7797C34.0994 24.9492 34.4938 25.1322 34.9119 25.3288C35.3299 25.5186 35.7243 25.7389 36.0951 25.9897C36.4659 26.2405 36.7693 26.549 37.0053 26.915C37.2413 27.2743 37.3593 27.7183 37.3593 28.247C37.3593 28.9045 37.1874 29.4739 36.8435 29.9552C36.4997 30.4365 36.0479 30.8093 35.4883 31.0737C34.9355 31.3313 34.3455 31.4601 33.7185 31.4601Z" fill="url(#paint2_linear_595_5)"/>
<path d="M41.9011 31.5211C41.4359 31.5211 40.9876 31.4025 40.5561 31.1652C40.1246 30.928 39.7706 30.5687 39.4942 30.0874C39.2245 29.5994 39.0896 28.9859 39.0896 28.247V20.7431H41.9011V28.2063C41.9011 28.5385 41.9686 28.8164 42.1034 29.0401C42.245 29.257 42.4877 29.3655 42.8316 29.3655C42.9664 29.3655 43.0945 29.3485 43.2159 29.3146C43.3372 29.274 43.4923 29.2503 43.6811 29.2435C43.998 29.2231 44.2677 29.3621 44.4902 29.6604C44.7194 29.9518 44.9284 30.2603 45.1172 30.5856C44.4497 30.9381 43.8631 31.1822 43.3575 31.3177C42.8518 31.4533 42.3664 31.5211 41.9011 31.5211ZM46.3915 31.2567C46.0813 30.8907 45.8723 30.528 45.7645 30.1688C45.6566 29.8095 45.6026 29.4265 45.6026 29.0198V20.7431H48.4344V28.6944C48.4344 29.0672 48.4614 29.4672 48.5153 29.8942C48.5692 30.3213 48.6501 30.7755 48.758 31.2567H46.3915Z" fill="url(#paint3_linear_595_5)"/>
<path d="M54.1036 31.5211C53.4563 31.5211 52.8967 31.3787 52.4247 31.094C51.9595 30.8026 51.5988 30.423 51.3426 29.9552C51.0931 29.4875 50.9684 28.9859 50.9684 28.4504C50.9684 27.8877 51.1336 27.3556 51.464 26.854C51.7943 26.3524 52.3607 25.9287 53.163 25.583C53.9721 25.2305 55.0879 25 56.5105 24.8916C56.4634 25.2102 56.3858 25.5051 56.2779 25.7762C56.1701 26.0406 56.0217 26.2609 55.833 26.4371C55.6509 26.6134 55.4183 26.7286 55.1351 26.7828C54.798 26.8371 54.5216 26.932 54.3058 27.0675C54.0901 27.2031 53.9316 27.3692 53.8305 27.5658C53.7294 27.7556 53.6788 27.9623 53.6788 28.186C53.6788 28.5385 53.8035 28.8334 54.053 29.0706C54.3025 29.3079 54.6025 29.4265 54.9531 29.4265C55.3374 29.4265 55.7251 29.2943 56.1161 29.03C56.5139 28.7588 56.8881 28.4165 57.2387 28.003V24.9323C57.2387 24.2273 57.0432 23.6647 56.6521 23.2444C56.2678 22.8241 55.7217 22.614 55.0138 22.614C54.6834 22.614 54.3261 22.6479 53.9417 22.7156C53.5574 22.7834 53.1259 22.9054 52.6472 23.0817L51.9595 21.2921C52.5596 21.0142 53.1765 20.8176 53.8103 20.7024C54.4508 20.5804 55.007 20.5194 55.479 20.5194C56.9151 20.5194 58.0208 20.899 58.7962 21.6582C59.5783 22.4174 59.9693 23.5087 59.9693 24.9323V28.6944C59.9693 29.0672 59.9929 29.4672 60.0401 29.8942C60.0873 30.3213 60.1716 30.7755 60.293 31.2567H58.2096C58.0276 31.1551 57.8759 31.0127 57.7545 30.8297C57.6399 30.6399 57.5421 30.4433 57.4612 30.2399L57.4005 29.8332L57.1578 30.1789C56.551 30.7348 56.0184 31.0974 55.5599 31.2669C55.1082 31.4364 54.6227 31.5211 54.1036 31.5211Z" fill="url(#paint4_linear_595_5)"/>
<path d="M62.6391 31.2567V15.8421H65.4506V31.2567H62.6391Z" fill="url(#paint5_linear_595_5)"/>
<path d="M68.2465 31.2567V20.7431H71.0782V31.2567H68.2465ZM69.6624 19.3602C69.1971 19.3602 68.8027 19.2009 68.4791 18.8823C68.1622 18.557 68.0038 18.1604 68.0038 17.6927C68.0038 17.2114 68.1622 16.8081 68.4791 16.4827C68.8027 16.1505 69.1971 15.9845 69.6624 15.9845C70.1276 15.9845 70.5186 16.1505 70.8355 16.4827C71.1591 16.8081 71.321 17.2114 71.321 17.6927C71.321 18.1604 71.1591 18.557 70.8355 18.8823C70.5186 19.2009 70.1276 19.3602 69.6624 19.3602Z" fill="url(#paint6_linear_595_5)"/>
<path d="M78.5677 31.5211C77.2866 31.5211 76.3056 31.1517 75.6247 30.4128C74.9437 29.6739 74.6032 28.6131 74.6032 27.2302V22.7563H72.9244V21.1498L74.6032 20.7431V18.2417L77.2731 17.3673V27.2302C77.2731 27.9216 77.4181 28.4605 77.708 28.8469C77.9979 29.2333 78.3789 29.4265 78.8508 29.4265C79.0464 29.4265 79.2689 29.4062 79.5183 29.3655C79.7678 29.3248 80.0644 29.2435 80.4083 29.1215L80.9949 30.972C80.4892 31.1415 80.0408 31.2737 79.6498 31.3686C79.2655 31.4703 78.9048 31.5211 78.5677 31.5211ZM79.9835 22.7563C79.5925 22.7563 79.2621 22.6512 78.9924 22.4411C78.7227 22.231 78.5036 21.97 78.3351 21.6582C78.1732 21.3464 78.0485 21.0413 77.9609 20.7431H80.8937V22.7563H79.9835Z" fill="url(#paint7_linear_595_5)"/>
<path d="M84.2732 36.3C84.0035 36.2865 83.7102 36.2526 83.3933 36.1984C83.0764 36.1509 82.7562 36.056 82.4325 35.9137L83.0798 34.0834C83.3158 34.1444 83.5248 34.1817 83.7068 34.1953C83.8956 34.2156 84.0844 34.2258 84.2732 34.2258C84.7451 34.2258 85.1328 34.0834 85.4362 33.7987C85.7396 33.514 86.0059 33.0937 86.2352 32.5379C86.4712 31.9888 86.7206 31.311 86.9836 30.5043L89.9771 20.7431H92.8696L89.1681 31.033C88.8309 31.9075 88.5141 32.6735 88.2174 33.331C87.9207 33.9885 87.5971 34.5376 87.2465 34.9782C86.9027 35.4188 86.4948 35.7476 86.0228 35.9645C85.5508 36.1882 84.9676 36.3 84.2732 36.3ZM85.77 30.9924L82.0078 20.7431H85.0418L86.4577 25.5423C86.6397 26.1321 86.7139 26.7761 86.6802 27.4743C86.6465 28.1725 86.5419 28.8368 86.3666 29.4672C86.1981 30.0976 85.9992 30.606 85.77 30.9924Z" fill="url(#paint8_linear_595_5)"/>
<path d="M86.4103 45.5672L97.1642 15.4512H102.933L113.687 45.5672H107.589L100.172 23.1563L99.8424 21.6235L99.4716 23.2391L95.9694 33.9682L95.4749 34.7967L96.093 34.7138H99.2244C100.021 34.7138 100.687 34.9417 101.223 35.3973C101.772 35.853 102.212 36.4123 102.541 37.0751C102.885 37.7379 103.152 38.373 103.345 38.9806H94.4037L92.2199 45.5672H86.4103Z" fill="url(#paint9_linear_595_5)"/>
<path d="M86.4103 45.5672L97.1642 15.4512H102.933L113.687 45.5672H107.589L100.172 23.1563L99.8424 21.6235L99.4716 23.2391L95.9694 33.9682L95.4749 34.7967L96.093 34.7138H99.2244C100.021 34.7138 100.687 34.9417 101.223 35.3973C101.772 35.853 102.212 36.4123 102.541 37.0751C102.885 37.7379 103.152 38.373 103.345 38.9806H94.4037L92.2199 45.5672H86.4103Z" fill="white"/>
<path d="M118.329 45.5672V15.4512H124.056V45.5672H118.329Z" fill="url(#paint10_linear_595_5)"/>
<path d="M118.329 45.5672V15.4512H124.056V45.5672H118.329Z" fill="white"/>
<path d="M26.647 45.5672L25.1038 40.0916H26.1451L27.1564 44.1136L27.2163 44.5278L27.2987 44.1136L28.2726 40.1669H29.4488L30.4077 44.106L30.4826 44.5278L30.5425 44.1211L31.5538 40.0916H32.5727L31.0369 45.5672H29.9806L28.9169 41.5377L28.8494 41.2289L28.7895 41.5301L27.7257 45.5672H26.647Z" fill="white"/>
<path d="M33.3263 45.5672V41.6732H34.3751V45.5672H33.3263ZM33.8507 41.1611C33.6784 41.1611 33.5323 41.1021 33.4124 40.9841C33.295 40.8636 33.2364 40.7167 33.2364 40.5435C33.2364 40.3652 33.295 40.2158 33.4124 40.0953C33.5323 39.9723 33.6784 39.9108 33.8507 39.9108C34.023 39.9108 34.1678 39.9723 34.2852 40.0953C34.405 40.2158 34.4649 40.3652 34.4649 40.5435C34.4649 40.7167 34.405 40.8636 34.2852 40.9841C34.1678 41.1021 34.023 41.1611 33.8507 41.1611Z" fill="white"/>
<path d="M37.1489 45.6651C36.6745 45.6651 36.3111 45.5283 36.0589 45.2546C35.8067 44.981 35.6806 44.5881 35.6806 44.0759V42.4189H35.0588V41.8239L35.6806 41.6732V40.7468L36.6695 40.423V44.0759C36.6695 44.332 36.7232 44.5316 36.8305 44.6747C36.9379 44.8178 37.079 44.8893 37.2538 44.8893C37.3262 44.8893 37.4086 44.8818 37.501 44.8667C37.5934 44.8517 37.7033 44.8215 37.8306 44.7764L38.0479 45.4617C37.8606 45.5245 37.6945 45.5735 37.5497 45.6086C37.4074 45.6463 37.2738 45.6651 37.1489 45.6651ZM37.6733 42.4189C37.5285 42.4189 37.4061 42.38 37.3062 42.3021C37.2063 42.2243 37.1252 42.1277 37.0628 42.0122C37.0028 41.8967 36.9566 41.7837 36.9242 41.6732H38.0104V42.4189H37.6733Z" fill="white"/>
<path d="M38.8575 45.5672V39.8581H39.8988V45.5672H38.8575ZM41.2773 45.5672V42.803C41.2773 42.6775 41.2498 42.5746 41.1949 42.4942C41.1424 42.4139 41.06 42.3737 40.9476 42.3737C40.9027 42.3737 40.8652 42.3787 40.8353 42.3888C40.8053 42.3988 40.7578 42.4063 40.6929 42.4114C40.5806 42.4189 40.4832 42.3712 40.4008 42.2683C40.3184 42.1628 40.2409 42.0423 40.1685 41.9067C40.4132 41.7661 40.6243 41.6758 40.8016 41.6356C40.9813 41.5954 41.1399 41.5753 41.2773 41.5753C41.4496 41.5753 41.6156 41.6193 41.7754 41.7071C41.9352 41.795 42.0651 41.9293 42.165 42.1101C42.2674 42.2883 42.3186 42.5143 42.3186 42.788V45.5672H41.2773Z" fill="white"/>
<path d="M48.0737 45.6576C47.6117 45.6576 47.1972 45.5848 46.8301 45.4392C46.463 45.2935 46.1509 45.0927 45.8937 44.8366C45.639 44.578 45.4442 44.278 45.3094 43.9366C45.1745 43.5951 45.1071 43.2273 45.1071 42.8331C45.1071 42.4365 45.1758 42.0674 45.3131 41.726C45.453 41.382 45.654 41.0807 45.9162 40.8221C46.1784 40.561 46.493 40.3577 46.8601 40.2121C47.2272 40.0665 47.6392 39.9936 48.0962 39.9936C48.3059 39.9936 48.5507 40.0188 48.8303 40.069C49.11 40.1192 49.3922 40.2045 49.6769 40.325L49.3997 41.0481C49.12 40.9376 48.8753 40.8636 48.6655 40.8259C48.4583 40.7883 48.2685 40.7694 48.0962 40.7694C47.799 40.7694 47.5356 40.8259 47.3058 40.9389C47.0761 41.0494 46.8826 41.2012 46.7252 41.3946C46.5679 41.5854 46.4481 41.805 46.3657 42.0536C46.2858 42.2996 46.2458 42.5595 46.2458 42.8331C46.2458 43.0917 46.2845 43.3441 46.3619 43.5901C46.4418 43.8336 46.5592 44.0533 46.714 44.2491C46.8688 44.4424 47.0599 44.5968 47.2871 44.7123C47.5143 44.8253 47.7765 44.8818 48.0737 44.8818C48.1836 44.8818 48.2909 44.878 48.3958 44.8705C48.5032 44.8605 48.6356 44.8366 48.7929 44.7989V43.029H49.7518V45.2885C49.5695 45.3714 49.3747 45.4404 49.1674 45.4956C48.9627 45.5484 48.7642 45.5885 48.5719 45.6162C48.3796 45.6438 48.2135 45.6576 48.0737 45.6576Z" fill="white"/>
<path d="M52.5283 45.6651C52.1862 45.6651 51.8903 45.6049 51.6406 45.4843C51.3909 45.3613 51.1849 45.1981 51.0226 44.9948C50.8627 44.7889 50.7441 44.5617 50.6667 44.3131C50.5893 44.0621 50.5506 43.8098 50.5506 43.5562C50.5506 43.1419 50.638 42.7867 50.8128 42.4904C50.9901 42.1942 51.2273 41.9682 51.5245 41.8126C51.8216 41.6544 52.1513 41.5753 52.5133 41.5753C52.7905 41.5753 53.0415 41.6306 53.2662 41.741C53.4935 41.849 53.6783 42.0021 53.8206 42.2005C53.9654 42.3988 54.0528 42.6335 54.0828 42.9047C54.1152 43.1758 54.0765 43.4733 53.9667 43.7972H51.8691C51.9215 43.624 52.0002 43.4784 52.1051 43.3604C52.2099 43.2399 52.3261 43.1796 52.4534 43.1796H53.1201C53.1401 43.0265 53.1264 42.8834 53.0789 42.7503C53.0315 42.6172 52.9541 42.5105 52.8467 42.4302C52.7418 42.3473 52.6132 42.3059 52.4609 42.3059C52.3236 42.3059 52.1875 42.3473 52.0526 42.4302C51.9178 42.513 51.8054 42.6436 51.7155 42.8218C51.6281 43.0001 51.5844 43.2323 51.5844 43.5185C51.5844 43.8073 51.6281 44.0546 51.7155 44.2604C51.8054 44.4638 51.929 44.6194 52.0863 44.7274C52.2462 44.8354 52.4309 44.8893 52.6407 44.8893C52.813 44.8893 52.984 44.868 53.1539 44.8253C53.3237 44.7801 53.5172 44.7086 53.7344 44.6107L53.9966 45.3111C53.7269 45.4392 53.4722 45.5295 53.2325 45.5823C52.9953 45.6375 52.7606 45.6651 52.5283 45.6651Z" fill="white"/>
<path d="M57.2588 45.5672V42.803C57.2588 42.6775 57.2326 42.5746 57.1801 42.4942C57.1302 42.4139 57.0415 42.3737 56.9142 42.3737C56.8667 42.3737 56.8205 42.38 56.7756 42.3925C56.7306 42.4051 56.672 42.4139 56.5995 42.4189C56.4797 42.4264 56.3785 42.3762 56.2961 42.2683C56.2162 42.1578 56.1401 42.0423 56.0677 41.9218C56.3149 41.7887 56.5321 41.6983 56.7194 41.6506C56.9067 41.6004 57.0865 41.5753 57.2588 41.5753C57.4311 41.5753 57.5971 41.6193 57.757 41.7071C57.9168 41.795 58.0466 41.9293 58.1465 42.1101C58.2489 42.2883 58.3001 42.5143 58.3001 42.788V45.5672H57.2588ZM54.8391 45.5672V42.6223C54.8391 42.4817 54.8291 42.3323 54.8091 42.1741C54.7916 42.0159 54.7617 41.849 54.7192 41.6732H55.5882C55.7081 41.8088 55.788 41.9431 55.8279 42.0762C55.8679 42.2093 55.8879 42.3511 55.8879 42.5017V45.5672H54.8391Z" fill="white"/>
<path d="M61.0878 45.6651C60.7457 45.6651 60.4498 45.6049 60.2001 45.4843C59.9504 45.3613 59.7444 45.1981 59.5821 44.9948C59.4222 44.7889 59.3036 44.5617 59.2262 44.3131C59.1488 44.0621 59.1101 43.8098 59.1101 43.5562C59.1101 43.1419 59.1975 42.7867 59.3723 42.4904C59.5496 42.1942 59.7868 41.9682 60.084 41.8126C60.3811 41.6544 60.7108 41.5753 61.0728 41.5753C61.35 41.5753 61.601 41.6306 61.8257 41.741C62.053 41.849 62.2377 42.0021 62.3801 42.2005C62.5249 42.3988 62.6123 42.6335 62.6423 42.9047C62.6747 43.1758 62.636 43.4733 62.5262 43.7972H60.4286C60.481 43.624 60.5597 43.4784 60.6646 43.3604C60.7694 43.2399 60.8856 43.1796 61.0129 43.1796H61.6796C61.6996 43.0265 61.6859 42.8834 61.6384 42.7503C61.591 42.6172 61.5136 42.5105 61.4062 42.4302C61.3013 42.3473 61.1727 42.3059 61.0204 42.3059C60.8831 42.3059 60.747 42.3473 60.6121 42.4302C60.4773 42.513 60.3649 42.6436 60.275 42.8218C60.1876 43.0001 60.1439 43.2323 60.1439 43.5185C60.1439 43.8073 60.1876 44.0546 60.275 44.2604C60.3649 44.4638 60.4885 44.6194 60.6458 44.7274C60.8056 44.8354 60.9904 44.8893 61.2002 44.8893C61.3725 44.8893 61.5435 44.868 61.7133 44.8253C61.8832 44.7801 62.0767 44.7086 62.2939 44.6107L62.5561 45.3111C62.2864 45.4392 62.0317 45.5295 61.792 45.5823C61.5548 45.6375 61.3201 45.6651 61.0878 45.6651Z" fill="white"/>
<path d="M63.4959 45.5672V42.6223C63.4959 42.4817 63.4872 42.3323 63.4697 42.1741C63.4523 42.0159 63.421 41.849 63.3761 41.6732H64.1702C64.2126 41.7059 64.2576 41.7749 64.305 41.8804C64.3525 41.9858 64.3849 42.1026 64.4024 42.2306L64.4174 42.4114L64.4923 42.2306C64.5947 42.0297 64.7258 41.8741 64.8856 41.7636C65.0479 41.6532 65.209 41.5979 65.3688 41.5979C65.4487 41.5979 65.5274 41.6055 65.6048 41.6205C65.6822 41.6356 65.7658 41.6582 65.8557 41.6883L65.7359 42.5394C65.636 42.5093 65.5523 42.4892 65.4849 42.4791C65.4175 42.4691 65.3538 42.4641 65.2939 42.4641C65.1241 42.4641 64.978 42.5206 64.8556 42.6336C64.7333 42.744 64.6396 42.8959 64.5747 43.0892C64.5098 43.2825 64.4773 43.5035 64.4773 43.752V45.5672H63.4959Z" fill="white"/>
<path d="M67.3887 45.6651C67.1489 45.6651 66.9417 45.6124 66.7669 45.5069C66.5946 45.399 66.461 45.2584 66.3661 45.0852C66.2737 44.9119 66.2275 44.7261 66.2275 44.5278C66.2275 44.3194 66.2887 44.1223 66.411 43.9366C66.5334 43.7508 66.7432 43.5939 67.0403 43.4658C67.34 43.3353 67.7532 43.2499 68.2801 43.2097C68.2627 43.3277 68.2339 43.4369 68.194 43.5374C68.154 43.6353 68.0991 43.7169 68.0292 43.7822C67.9618 43.8474 67.8756 43.8901 67.7707 43.9102C67.6459 43.9303 67.5435 43.9654 67.4636 44.0156C67.3837 44.0659 67.325 44.1274 67.2875 44.2002C67.2501 44.2705 67.2313 44.347 67.2313 44.4299C67.2313 44.5604 67.2775 44.6696 67.3699 44.7575C67.4623 44.8454 67.5734 44.8893 67.7033 44.8893C67.8456 44.8893 67.9892 44.8404 68.1341 44.7425C68.2814 44.642 68.42 44.5153 68.5498 44.3621V43.2248C68.5498 42.9637 68.4774 42.7553 68.3326 42.5997C68.1902 42.444 67.988 42.3662 67.7258 42.3662C67.6034 42.3662 67.4711 42.3787 67.3287 42.4038C67.1864 42.4289 67.0266 42.4741 66.8493 42.5394L66.5946 41.8766C66.8168 41.7737 67.0453 41.7009 67.28 41.6582C67.5173 41.613 67.7233 41.5904 67.8981 41.5904C68.43 41.5904 68.8395 41.731 69.1267 42.0122C69.4163 42.2934 69.5612 42.6976 69.5612 43.2248V44.6182C69.5612 44.7563 69.5699 44.9044 69.5874 45.0626C69.6049 45.2207 69.6361 45.3889 69.681 45.5672H68.9094C68.842 45.5295 68.7858 45.4768 68.7409 45.409C68.6984 45.3387 68.6622 45.2659 68.6322 45.1906L68.6098 45.04L68.5199 45.168C68.2951 45.3739 68.0979 45.5082 67.928 45.571C67.7607 45.6337 67.5809 45.6651 67.3887 45.6651Z" fill="white"/>
<path d="M72.2355 45.6651C71.7611 45.6651 71.3977 45.5283 71.1455 45.2546C70.8933 44.981 70.7672 44.5881 70.7672 44.0759V42.4189H70.1454V41.8239L70.7672 41.6732V40.7468L71.7561 40.423V44.0759C71.7561 44.332 71.8098 44.5316 71.9172 44.6747C72.0245 44.8178 72.1656 44.8893 72.3404 44.8893C72.4128 44.8893 72.4952 44.8818 72.5876 44.8667C72.68 44.8517 72.7899 44.8215 72.9173 44.7764L73.1345 45.4617C72.9472 45.5245 72.7812 45.5735 72.6363 45.6086C72.494 45.6463 72.3604 45.6651 72.2355 45.6651ZM72.7599 42.4189C72.6151 42.4189 72.4927 42.38 72.3929 42.3021C72.293 42.2243 72.2118 42.1277 72.1494 42.0122C72.0895 41.8967 72.0433 41.7837 72.0108 41.6732H73.097V42.4189H72.7599Z" fill="white"/>
<path d="M73.9217 45.5672V41.6732H74.9705V45.5672H73.9217ZM74.4461 41.1611C74.2738 41.1611 74.1277 41.1021 74.0078 40.9841C73.8905 40.8636 73.8318 40.7167 73.8318 40.5435C73.8318 40.3652 73.8905 40.2158 74.0078 40.0953C74.1277 39.9723 74.2738 39.9108 74.4461 39.9108C74.6184 39.9108 74.7632 39.9723 74.8806 40.0953C75.0004 40.2158 75.0604 40.3652 75.0604 40.5435C75.0604 40.7167 75.0004 40.8636 74.8806 40.9841C74.7632 41.1021 74.6184 41.1611 74.4461 41.1611Z" fill="white"/>
<path d="M76.9952 45.5672L75.5419 41.6732H76.6431L77.5121 44.4299L77.5645 44.6558L77.617 44.4299L78.4785 41.6732H79.5648L78.1114 45.5672H76.9952Z" fill="white"/>
<path d="M81.8208 45.6651C81.4787 45.6651 81.1828 45.6049 80.9331 45.4843C80.6834 45.3613 80.4774 45.1981 80.315 44.9948C80.1552 44.7889 80.0366 44.5617 79.9592 44.3131C79.8818 44.0621 79.8431 43.8098 79.8431 43.5562C79.8431 43.1419 79.9305 42.7867 80.1053 42.4904C80.2826 42.1942 80.5198 41.9682 80.817 41.8126C81.1141 41.6544 81.4438 41.5753 81.8058 41.5753C82.083 41.5753 82.334 41.6306 82.5587 41.741C82.786 41.849 82.9707 42.0021 83.1131 42.2005C83.2579 42.3988 83.3453 42.6335 83.3753 42.9047C83.4077 43.1758 83.369 43.4733 83.2592 43.7972H81.1616C81.214 43.624 81.2927 43.4784 81.3976 43.3604C81.5024 43.2399 81.6186 43.1796 81.7459 43.1796H82.4126C82.4326 43.0265 82.4189 42.8834 82.3714 42.7503C82.324 42.6172 82.2466 42.5105 82.1392 42.4302C82.0343 42.3473 81.9057 42.3059 81.7534 42.3059C81.6161 42.3059 81.48 42.3473 81.3451 42.4302C81.2103 42.513 81.0979 42.6436 81.008 42.8218C80.9206 43.0001 80.8769 43.2323 80.8769 43.5185C80.8769 43.8073 80.9206 44.0546 81.008 44.2604C81.0979 44.4638 81.2215 44.6194 81.3788 44.7274C81.5386 44.8354 81.7234 44.8893 81.9332 44.8893C82.1055 44.8893 82.2765 44.868 82.4464 44.8253C82.6162 44.7801 82.8097 44.7086 83.0269 44.6107L83.2891 45.3111C83.0194 45.4392 82.7647 45.5295 82.525 45.5823C82.2878 45.6375 82.0531 45.6651 81.8208 45.6651Z" fill="white"/>
</g>
<defs>
<linearGradient id="paint0_linear_595_5" x1="3.15086" y1="23.0214" x2="79.927" y2="3.27928" gradientUnits="userSpaceOnUse">
<stop stop-color="#6E9CFD"/>
<stop offset="0.766122" stop-color="#68F8FF"/>
<stop offset="0.985" stop-color="white"/>
</linearGradient>
<linearGradient id="paint1_linear_595_5" x1="34.0604" y1="37.449" x2="79.6862" y2="-9.40645" gradientUnits="userSpaceOnUse">
<stop stop-color="#6E9CFD"/>
<stop offset="0.766122" stop-color="#68F8FF"/>
<stop offset="0.985" stop-color="white"/>
</linearGradient>
<linearGradient id="paint2_linear_595_5" x1="34.0604" y1="37.449" x2="79.6862" y2="-9.40645" gradientUnits="userSpaceOnUse">
<stop stop-color="#6E9CFD"/>
<stop offset="0.766122" stop-color="#68F8FF"/>
<stop offset="0.985" stop-color="white"/>
</linearGradient>
<linearGradient id="paint3_linear_595_5" x1="34.0604" y1="37.449" x2="79.6862" y2="-9.40645" gradientUnits="userSpaceOnUse">
<stop stop-color="#6E9CFD"/>
<stop offset="0.766122" stop-color="#68F8FF"/>
<stop offset="0.985" stop-color="white"/>
</linearGradient>
<linearGradient id="paint4_linear_595_5" x1="34.0604" y1="37.449" x2="79.6862" y2="-9.40645" gradientUnits="userSpaceOnUse">
<stop stop-color="#6E9CFD"/>
<stop offset="0.766122" stop-color="#68F8FF"/>
<stop offset="0.985" stop-color="white"/>
</linearGradient>
<linearGradient id="paint5_linear_595_5" x1="34.0604" y1="37.449" x2="79.6862" y2="-9.40645" gradientUnits="userSpaceOnUse">
<stop stop-color="#6E9CFD"/>
<stop offset="0.766122" stop-color="#68F8FF"/>
<stop offset="0.985" stop-color="white"/>
</linearGradient>
<linearGradient id="paint6_linear_595_5" x1="34.0604" y1="37.449" x2="79.6862" y2="-9.40645" gradientUnits="userSpaceOnUse">
<stop stop-color="#6E9CFD"/>
<stop offset="0.766122" stop-color="#68F8FF"/>
<stop offset="0.985" stop-color="white"/>
</linearGradient>
<linearGradient id="paint7_linear_595_5" x1="34.0604" y1="37.449" x2="79.6862" y2="-9.40645" gradientUnits="userSpaceOnUse">
<stop stop-color="#6E9CFD"/>
<stop offset="0.766122" stop-color="#68F8FF"/>
<stop offset="0.985" stop-color="white"/>
</linearGradient>
<linearGradient id="paint8_linear_595_5" x1="34.0604" y1="37.449" x2="79.6862" y2="-9.40645" gradientUnits="userSpaceOnUse">
<stop stop-color="#6E9CFD"/>
<stop offset="0.766122" stop-color="#68F8FF"/>
<stop offset="0.985" stop-color="white"/>
</linearGradient>
<linearGradient id="paint9_linear_595_5" x1="34.0604" y1="37.449" x2="79.6862" y2="-9.40645" gradientUnits="userSpaceOnUse">
<stop stop-color="#6E9CFD"/>
<stop offset="0.766122" stop-color="#68F8FF"/>
<stop offset="0.985" stop-color="white"/>
</linearGradient>
<linearGradient id="paint10_linear_595_5" x1="34.0604" y1="37.449" x2="79.6862" y2="-9.40645" gradientUnits="userSpaceOnUse">
<stop stop-color="#6E9CFD"/>
<stop offset="0.766122" stop-color="#68F8FF"/>
<stop offset="0.985" stop-color="white"/>
</linearGradient>
</defs>
</svg>
